<?xml version="1.0" encoding="UTF-8" standalone="no"?>
<!-- Created with Inkscape (http://www.inkscape.org/) -->

<svg
   width="46.760612mm"
   height="61.380447mm"
   viewBox="0 0 46.760612 61.380447"
   version="1.1"
   id="svg1"
   inkscape:version="1.4.2 (ebf0e940, 2025-05-08)"
   sodipodi:docname="linksmith-logo-dark.svg"
   xmlns:inkscape="http://www.inkscape.org/namespaces/inkscape"
   xmlns:sodipodi="http://sodipodi.sourceforge.net/DTD/sodipodi-0.dtd"
   xmlns="http://www.w3.org/2000/svg"
   xmlns:svg="http://www.w3.org/2000/svg">
  <sodipodi:namedview
     id="namedview1"
     pagecolor="#505050"
     bordercolor="#eeeeee"
     borderopacity="1"
     inkscape:showpageshadow="0"
     inkscape:pageopacity="0"
     inkscape:pagecheckerboard="0"
     inkscape:deskcolor="#505050"
     inkscape:document-units="mm"
     inkscape:zoom="2.2698934"
     inkscape:cx="69.166245"
     inkscape:cy="185.25099"
     inkscape:window-width="1472"
     inkscape:window-height="834"
     inkscape:window-x="1752"
     inkscape:window-y="61"
     inkscape:window-maximized="0"
     inkscape:current-layer="layer1" />
  <defs
     id="defs1">
    <inkscape:path-effect
       effect="knot"
       id="path-effect12"
       is_visible="true"
       lpeversion="1"
       switcher_size="15"
       interruption_width="3"
       prop_to_stroke_width="true"
       add_stroke_width="inkscape_1.0_and_up"
       both="false"
       inverse_width="false"
       add_other_stroke_width="inkscape_1.0_and_up"
       crossing_points_vector="92.011786 | 61.663422 | 0 | 1 | 0 | 1 | 4.4619325 | 2.5072355 | 1 | 74.264153 | 50.498122 | 0 | 1 | 1 | 0 | 5.5072354 | 1.4619323 | 1" />
  </defs>
  <g
     inkscape:label="Layer 1"
     inkscape:groupmode="layer"
     id="layer1"
     transform="translate(-86.783326,-99.483332)">
    <path
       id="path6"
       style="fill:#bd09d6;fill-opacity:1;stroke:none;stroke-width:0.95489;stroke-linecap:round;stroke-linejoin:round;stroke-dasharray:none;stroke-opacity:1"
       d="m 133.19893,128.30508 -16.66283,0.11399 -4.41133,3.89817 c -3.15064,2.78409 -7.21571,3.2225 -9.11479,0.98314 -1.03709,-1.22294 -1.20725,-2.984 -0.635,-4.78426 -5.265067,0.0251 -10.286367,-0.0432 -15.551167,0.0125 -0.49721,2.77351 3.68827,6.68976 6.89136,7.88528 3.20309,1.19552 6.925977,3.70555 6.683247,6.89782 -0.35515,4.67066 -6.991607,6.98762 -11.191927,8.49776 l 20.635287,-0.09 17.49904,-0.04 c -1.44073,-0.54305 -2.74502,-1.33797 -3.84371,-2.33371 -1.11477,-1.01032 -2.80823,-3.00713 -3.55343,-6.10516 -0.7452,-3.09803 0.55121,-7.81699 4.39102,-10.13711 2.75276,-1.66332 8.01969,-1.53574 8.86466,-1.84662 z"
       sodipodi:nodetypes="cccscczacccszscc" />
    <path
       id="path7"
       style="fill:none;fill-opacity:1;stroke:#f9f9f9;stroke-width:9.29062;stroke-linecap:round;stroke-linejoin:round;stroke-dasharray:none;stroke-opacity:0.964706;paint-order:stroke fill markers"
       d="M 78.072771,60.393281 C 72.726605,55.443843 72.994736,45.109689 78.965279,36.297305 l 10.81105,-15.956871 c 6.39076,-9.432613 16.823161,-13.4440068 23.391041,-8.994157 6.56787,4.449849 6.71047,15.625984 0.31971,25.058596 l -7.57309,11.177706 m -17.710821,4.185685 c 5.346164,4.949437 5.078033,15.283591 -0.8925,24.095973 l -10.81106,15.956875 c -6.39076,9.432618 -16.823156,13.444008 -23.391036,8.994158 -6.56787,-4.449848 -6.71047,-15.62598 -0.31971,-25.058597 l 7.573086,-11.177705"
       inkscape:path-effect="#path-effect12"
       inkscape:original-d="m 78.965279,36.297305 10.81105,-15.956871 c 6.39076,-9.432613 16.823161,-13.4440068 23.391041,-8.994157 6.56787,4.449849 6.71047,15.625984 0.31971,25.058596 l -10.81106,15.956872 c -6.390751,9.432613 -16.823151,13.444006 -23.391031,8.994157 -6.56788,-4.44985 -6.71047,-15.625983 -0.31971,-25.058597 z M 52.788863,75.756673 63.599919,59.799798 c 6.39075,-9.432613 16.82316,-13.444006 23.39103,-8.994156 6.56788,4.449849 6.71047,15.625982 0.31972,25.058595 l -10.81106,15.956875 c -6.39076,9.432618 -16.823156,13.444008 -23.391036,8.994158 -6.56787,-4.449848 -6.71047,-15.62598 -0.31971,-25.058597 z"
       transform="matrix(0.19120921,0.06312093,-0.06183561,0.19518372,100.63748,108.67229)" />
    <path
       id="path8"
       style="fill:#f9f9f9;fill-opacity:0.964706;stroke-width:0.967384;stroke-linecap:square;stroke-linejoin:round;paint-order:stroke fill markers"
       d="m 116.76242,113.70464 -3.65201,-6.73029 13.26094,-7.491018 3.65202,6.730288 z m 13.71799,11.90466 -12.22933,-22.65216 2.05291,-1.16442 12.22933,22.65215 z"
       sodipodi:nodetypes="cccccccccc" />
    <ellipse
       style="fill:#bd09d6;fill-opacity:1;stroke-width:0.95489;stroke-linecap:square;stroke-linejoin:round;paint-order:stroke fill markers"
       id="ellipse8"
       cx="112.13732"
       cy="112.93185"
       rx="0.9059782"
       ry="3.2882135" />
    <ellipse
       style="fill:#bd09d6;fill-opacity:1;stroke-width:0.954896;stroke-linecap:square;stroke-linejoin:round;paint-order:stroke fill markers"
       id="ellipse9"
       cx="-106.51547"
       cy="117.2914"
       rx="0.92450756"
       ry="3.2223532"
       transform="matrix(0.12481941,-0.99217948,0.9915172,0.12997558,0,0)" />
    <ellipse
       style="fill:#bd09d6;fill-opacity:1;stroke-width:0.954991;stroke-linecap:square;stroke-linejoin:round;paint-order:stroke fill markers"
       id="ellipse10"
       cx="-4.983995"
       cy="154.54652"
       rx="0.91544253"
       ry="3.2549069"
       transform="matrix(0.6997963,-0.71434245,0.6997963,0.71434245,0,0)" />
    <g
       id="text11"
       style="font-weight:600;font-size:9.03365px;line-height:0;font-family:'Open Sans';-inkscape-font-specification:'Open Sans Semi-Bold';letter-spacing:0px;fill:#bd09d6;stroke-width:2.15447;stroke-linecap:square;stroke-linejoin:round;paint-order:stroke fill markers"
       aria-label="LINKSMITH">
      <path
         d="m 86.78333,160.77556 v -6.44883 h 1.05422 v 5.54458 h 2.730386 v 0.90425 z m 4.896168,0 v -6.44883 h 1.05422 v 6.44883 z m 8.129403,0 h -1.292412 l -3.171482,-5.13877 h -0.03529 l 0.02205,0.28671 q 0.06175,0.82044 0.06175,1.49973 v 3.35233 h -0.957179 v -6.44883 h 1.279179 l 3.16266,5.11231 h 0.02647 q -0.0088,-0.10146 -0.03529,-0.73663 -0.02647,-0.63959 -0.02647,-0.99688 v -3.3788 h 0.966001 z m 6.625269,0 h -1.22184 l -2.02463,-2.92006 -0.62195,0.50726 v 2.4128 h -1.05422 v -6.44883 h 1.05422 v 3.07885 q 0.43228,-0.52931 0.86014,-1.01893 l 1.74233,-2.05992 h 1.19978 q -1.6894,1.98493 -2.42162,2.82743 z"
         id="path1" />
      <path
         style="fill:#f9f9f9;fill-opacity:0.964706"
         d="m 111.00392,159.02441 q 0,0.86013 -0.62194,1.34975 -0.62195,0.48962 -1.71587,0.48962 -1.09392,0 -1.79085,-0.33965 v -0.99687 q 0.4411,0.20731 0.93513,0.32641 0.49843,0.11909 0.9263,0.11909 0.62635,0 0.92189,-0.23819 0.29994,-0.23819 0.29994,-0.63959 0,-0.3617 -0.27347,-0.61312 -0.27348,-0.25143 -1.12921,-0.59548 -0.88219,-0.35729 -1.24389,-0.81603 -0.3617,-0.45874 -0.3617,-1.10274 0,-0.80721 0.57342,-1.27036 0.57343,-0.46315 1.53943,-0.46315 0.9263,0 1.84378,0.40581 l -0.33523,0.86014 q -0.86014,-0.3617 -1.53502,-0.3617 -0.51167,0 -0.77633,0.22496 -0.26465,0.22055 -0.26465,0.58666 0,0.25142 0.10586,0.43227 0.10586,0.17644 0.34847,0.33523 0.2426,0.1588 0.87337,0.41904 0.71016,0.29554 1.04098,0.55137 0.33083,0.25584 0.48521,0.57784 0.15438,0.322 0.15438,0.75869 z m 4.03603,1.75115 -1.87024,-5.38579 h -0.0353 q 0.075,1.19979 0.075,2.24959 v 3.1362 h -0.95717 v -6.44883 h 1.48649 l 1.79085,5.12995 h 0.0265 l 1.84378,-5.12995 h 1.4909 v 6.44883 h -1.01452 v -3.18913 q 0,-0.48079 0.0221,-1.25271 0.0265,-0.77192 0.0441,-0.93512 h -0.0353 l -1.93641,5.37696 z m 5.54899,0 v -6.44883 h 1.05422 v 6.44883 z m 4.98439,0 h -1.05422 v -5.54458 h -1.89671 v -0.90425 h 4.84765 v 0.90425 h -1.89672 z m 7.97061,0 h -1.05863 v -2.90683 h -2.97299 v 2.90683 h -1.05422 v -6.44883 h 1.05422 v 2.63776 h 2.97299 v -2.63776 h 1.05863 z"
         id="path2" />
    </g>
  </g>
</svg>
