<?xml version="1.0" encoding="UTF-8" standalone="no"?>
<!-- Created with Inkscape (http://www.inkscape.org/) -->

<svg
   width="46.760612mm"
   height="61.380444mm"
   viewBox="0 0 46.760612 61.380444"
   version="1.1"
   id="svg1"
   inkscape:version="1.4.2 (ebf0e940, 2025-05-08)"
   sodipodi:docname="linksmith-logo-light.svg"
   xmlns:inkscape="http://www.inkscape.org/namespaces/inkscape"
   xmlns:sodipodi="http://sodipodi.sourceforge.net/DTD/sodipodi-0.dtd"
   xmlns="http://www.w3.org/2000/svg"
   xmlns:svg="http://www.w3.org/2000/svg">
  <sodipodi:namedview
     id="namedview1"
     pagecolor="#505050"
     bordercolor="#eeeeee"
     borderopacity="1"
     inkscape:showpageshadow="0"
     inkscape:pageopacity="0"
     inkscape:pagecheckerboard="0"
     inkscape:deskcolor="#505050"
     inkscape:document-units="mm"
     inkscape:zoom="1.8066498"
     inkscape:cx="23.247449"
     inkscape:cy="144.46629"
     inkscape:window-width="1920"
     inkscape:window-height="1027"
     inkscape:window-x="1512"
     inkscape:window-y="25"
     inkscape:window-maximized="1"
     inkscape:current-layer="layer1" />
  <defs
     id="defs1">
    <inkscape:path-effect
       effect="knot"
       id="path-effect3"
       is_visible="true"
       lpeversion="1"
       switcher_size="15"
       interruption_width="3"
       prop_to_stroke_width="true"
       add_stroke_width="inkscape_1.0_and_up"
       both="false"
       inverse_width="false"
       add_other_stroke_width="inkscape_1.0_and_up"
       crossing_points_vector="92.011786 | 61.663422 | 0 | 1 | 0 | 1 | 4.4619325 | 2.5072355 | 1 | 74.264153 | 50.498122 | 0 | 1 | 1 | 0 | 5.5072354 | 1.4619323 | 1" />
  </defs>
  <g
     inkscape:label="Layer 1"
     inkscape:groupmode="layer"
     id="layer1"
     transform="translate(-73.289584,-53.181249)">
    <path
       id="path1"
       style="fill:#bd09d6;fill-opacity:1;stroke:none;stroke-width:0.95489;stroke-linecap:round;stroke-linejoin:round;stroke-dasharray:none;stroke-opacity:1"
       d="m 119.70519,82.002993 -16.66283,0.113998 -4.411331,3.898164 c -3.150633,2.784097 -7.215708,3.222506 -9.114784,0.983138 -1.037093,-1.222934 -1.207249,-2.983996 -0.635001,-4.784258 -5.265068,0.02509 -10.286371,-0.04316 -15.551174,0.01252 -0.497206,2.773513 3.688268,6.689758 6.891359,7.885281 3.203091,1.195523 6.925986,3.705547 6.683251,6.897821 -0.355149,4.670663 -6.991608,6.987623 -11.191926,8.497763 l 20.635286,-0.09 17.49904,-0.04 c -1.44073,-0.54305 -2.74502,-1.33797 -3.84371,-2.33372 -1.11477,-1.01031 -2.80823,-3.00713 -3.55343,-6.105155 -0.7452,-3.09803 0.55121,-7.816984 4.39103,-10.137108 2.75276,-1.663316 8.01968,-1.535735 8.86465,-1.846623 z"
       sodipodi:nodetypes="cccscczacccszscc" />
    <path
       id="path2"
       style="fill:none;fill-opacity:1;stroke:#2a2a2a;stroke-width:9.28895;stroke-linecap:round;stroke-linejoin:round;stroke-dasharray:none;stroke-opacity:1;paint-order:stroke fill markers"
       d="m 78.075281,60.395605 c -5.34876,-4.948527 -5.081479,-15.284537 0.889998,-24.0983 l 10.81105,-15.956871 c 6.39076,-9.432613 16.823161,-13.4440068 23.391041,-8.994157 6.56787,4.449849 6.71047,15.625984 0.31971,25.058596 l -7.57559,11.18139 M 88.200658,51.76594 c 5.348759,4.948527 5.081479,15.284536 -0.889989,24.098297 l -10.81106,15.956875 c -6.39076,9.432618 -16.823156,13.444008 -23.391036,8.994158 -6.56787,-4.449848 -6.71047,-15.62598 -0.31971,-25.058597 l 7.575582,-11.181389"
       inkscape:path-effect="#path-effect3"
       inkscape:original-d="m 78.965279,36.297305 10.81105,-15.956871 c 6.39076,-9.432613 16.823161,-13.4440068 23.391041,-8.994157 6.56787,4.449849 6.71047,15.625984 0.31971,25.058596 l -10.81106,15.956872 c -6.390751,9.432613 -16.823151,13.444006 -23.391031,8.994157 -6.56788,-4.44985 -6.71047,-15.625983 -0.31971,-25.058597 z M 52.788863,75.756673 63.599919,59.799798 c 6.39075,-9.432613 16.82316,-13.444006 23.39103,-8.994156 6.56788,4.449849 6.71047,15.625982 0.31972,25.058595 l -10.81106,15.956875 c -6.39076,9.432618 -16.823156,13.444008 -23.391036,8.994158 -6.56787,-4.449848 -6.71047,-15.62598 -0.31971,-25.058597 z"
       transform="matrix(0.19120921,0.06312093,-0.06183561,0.19518372,87.143742,62.370208)" />
    <path
       id="rect4"
       style="fill:#2a2a2a;fill-opacity:1;stroke-width:0.967384;stroke-linecap:square;stroke-linejoin:round;paint-order:stroke fill markers"
       d="m 103.26868,67.402557 -3.652013,-6.730287 13.260943,-7.491021 3.65202,6.730288 z m 13.71799,11.904659 -12.22933,-22.652159 2.05291,-1.164425 12.22933,22.652156 z"
       sodipodi:nodetypes="cccccccccc" />
    <ellipse
       style="fill:#bd09d6;fill-opacity:1;stroke-width:0.95489;stroke-linecap:square;stroke-linejoin:round;paint-order:stroke fill markers"
       id="path4"
       cx="98.643578"
       cy="66.629768"
       rx="0.9059782"
       ry="3.2882135" />
    <ellipse
       style="fill:#bd09d6;fill-opacity:1;stroke-width:0.954896;stroke-linecap:square;stroke-linejoin:round;paint-order:stroke fill markers"
       id="ellipse4"
       cx="-62.359425"
       cy="98.123528"
       rx="0.92450756"
       ry="3.2223532"
       transform="matrix(0.12481941,-0.99217948,0.9915172,0.12997558,0,0)" />
    <ellipse
       style="fill:#bd09d6;fill-opacity:1;stroke-width:0.954991;stroke-linecap:square;stroke-linejoin:round;paint-order:stroke fill markers"
       id="ellipse5"
       cx="17.783697"
       cy="112.49645"
       rx="0.91544253"
       ry="3.2549069"
       transform="matrix(0.6997963,-0.71434245,0.6997963,0.71434245,0,0)" />
    <g
       id="text6"
       style="font-weight:600;font-size:9.03365px;line-height:0;font-family:'Open Sans';-inkscape-font-specification:'Open Sans Semi-Bold';letter-spacing:0px;fill:#bd09d6;stroke-width:2.15447;stroke-linecap:square;stroke-linejoin:round;paint-order:stroke fill markers"
       aria-label="LINKSMITH">
      <path
         d="m 73.289586,114.47347 v -6.44882 h 1.05422 v 5.54458 h 2.730386 v 0.90424 z m 4.896168,0 v -6.44882 h 1.05422 v 6.44882 z m 8.129403,0 h -1.292412 l -3.171482,-5.13877 h -0.03529 l 0.02205,0.28671 q 0.06175,0.82044 0.06175,1.49973 v 3.35233 h -0.957179 v -6.44882 h 1.279179 l 3.16266,5.1123 h 0.02647 q -0.0088,-0.10145 -0.03529,-0.73663 -0.02647,-0.63959 -0.02647,-0.99688 v -3.37879 h 0.966001 z m 6.625266,0 h -1.221837 l -2.024631,-2.92005 -0.621946,0.50726 v 2.41279 h -1.05422 v -6.44882 h 1.05422 v 3.07885 q 0.432274,-0.52932 0.860138,-1.01893 l 1.74233,-2.05992 h 1.199781 q -1.689398,1.98493 -2.421618,2.82742 z"
         id="path3" />
      <path
         style="fill:#232323"
         d="m 97.510179,112.72232 q 0,0.86014 -0.621946,1.34976 -0.621946,0.48961 -1.715864,0.48961 -1.093919,0 -1.790851,-0.33964 v -0.99688 q 0.441096,0.20732 0.935124,0.32641 0.498439,0.1191 0.926302,0.1191 0.626357,0 0.921891,-0.23819 0.299946,-0.2382 0.299946,-0.63959 0,-0.3617 -0.27348,-0.61313 -0.27348,-0.25142 -1.129206,-0.59548 -0.882193,-0.35729 -1.243891,-0.81603 -0.361699,-0.45874 -0.361699,-1.10274 0,-0.8072 0.573425,-1.27035 0.573425,-0.46315 1.539425,-0.46315 0.926303,0 1.843783,0.4058 l -0.335233,0.86014 q -0.860138,-0.3617 -1.535015,-0.3617 -0.511672,0 -0.77633,0.22496 -0.264657,0.22055 -0.264657,0.58666 0,0.25142 0.105863,0.43227 0.105863,0.17644 0.348466,0.33524 0.242603,0.15879 0.87337,0.41904 0.710165,0.29553 1.040987,0.55137 0.330822,0.25583 0.485206,0.57784 0.154384,0.322 0.154384,0.75868 z m 4.036031,1.75115 -1.870249,-5.38578 h -0.03529 q 0.07499,1.19978 0.07499,2.24959 v 3.13619 h -0.957179 v -6.44882 h 1.486499 l 1.79085,5.12994 h 0.0265 l 1.84378,-5.12994 h 1.49091 v 6.44882 h -1.01452 v -3.18912 q 0,-0.4808 0.0221,-1.25272 0.0265,-0.77191 0.0441,-0.93512 h -0.0353 l -1.93641,5.37696 z m 5.54899,0 v -6.44882 h 1.05422 v 6.44882 z m 4.98439,0 h -1.05422 v -5.54458 h -1.89672 v -0.90424 h 4.84765 v 0.90424 h -1.89671 z m 7.97061,0 h -1.05863 v -2.90682 h -2.97299 v 2.90682 h -1.05422 v -6.44882 h 1.05422 v 2.63775 h 2.97299 v -2.63775 h 1.05863 z"
         id="path5" />
    </g>
  </g>
</svg>
